<svg xmlns="http://www.w3.org/2000/svg" id="prefigure-rectangle-c-figure" width="406" height="406" viewBox="0 0 406 406">
  <defs>
    <clipPath id="prefigure-rectangle-c-clipPath-0">
      <rect x="3.0" y="3.0" width="400.0" height="400.0"/>
    </clipPath>
    <clipPath id="prefigure-rectangle-c-clipPath-1">
      <rect x="3.0" y="3.0" width="400.0" height="400.0"/>
    </clipPath>
  </defs>
  <g id="prefigure-rectangle-c-grid-axes">
    <g id="prefigure-rectangle-c-grid" stroke="#ccc" stroke-width="1">
      <line x1="3.0" y1="403.0" x2="3.0" y2="3.0"/>
      <line x1="39.4" y1="403.0" x2="39.4" y2="3.0"/>
      <line x1="75.7" y1="403.0" x2="75.7" y2="3.0"/>
      <line x1="112.1" y1="403.0" x2="112.1" y2="3.0"/>
      <line x1="148.5" y1="403.0" x2="148.5" y2="3.0"/>
      <line x1="184.8" y1="403.0" x2="184.8" y2="3.0"/>
      <line x1="221.2" y1="403.0" x2="221.2" y2="3.0"/>
      <line x1="257.5" y1="403.0" x2="257.5" y2="3.0"/>
      <line x1="293.9" y1="403.0" x2="293.9" y2="3.0"/>
      <line x1="330.3" y1="403.0" x2="330.3" y2="3.0"/>
      <line x1="366.6" y1="403.0" x2="366.6" y2="3.0"/>
      <line x1="403.0" y1="403.0" x2="403.0" y2="3.0"/>
      <line x1="3.0" y1="403.0" x2="403.0" y2="403.0"/>
      <line x1="3.0" y1="366.6" x2="403.0" y2="366.6"/>
      <line x1="3.0" y1="330.3" x2="403.0" y2="330.3"/>
      <line x1="3.0" y1="293.9" x2="403.0" y2="293.9"/>
      <line x1="3.0" y1="257.5" x2="403.0" y2="257.5"/>
      <line x1="3.0" y1="221.2" x2="403.0" y2="221.2"/>
      <line x1="3.0" y1="184.8" x2="403.0" y2="184.8"/>
      <line x1="3.0" y1="148.5" x2="403.0" y2="148.5"/>
      <line x1="3.0" y1="112.1" x2="403.0" y2="112.1"/>
      <line x1="3.0" y1="75.7" x2="403.0" y2="75.7"/>
      <line x1="3.0" y1="39.4" x2="403.0" y2="39.4"/>
      <line x1="3.0" y1="3.0" x2="403.0" y2="3.0"/>
    </g>
    <g id="prefigure-rectangle-c-axes" stroke="black" stroke-width="2">
      <line id="prefigure-rectangle-c-line-24" x1="3.0" y1="366.6" x2="403.0" y2="366.6" stroke="black" stroke-width="2"/>
      <g id="prefigure-rectangle-c-g-0">
        <line id="prefigure-rectangle-c-line-25" x1="75.7" y1="369.6" x2="75.7" y2="363.6"/>
        <line id="prefigure-rectangle-c-line-26" x1="112.1" y1="369.6" x2="112.1" y2="363.6"/>
        <line id="prefigure-rectangle-c-line-27" x1="148.5" y1="369.6" x2="148.5" y2="363.6"/>
        <line id="prefigure-rectangle-c-line-28" x1="184.8" y1="369.6" x2="184.8" y2="363.6"/>
        <line id="prefigure-rectangle-c-line-29" x1="221.2" y1="369.6" x2="221.2" y2="363.6"/>
        <line id="prefigure-rectangle-c-line-30" x1="257.5" y1="369.6" x2="257.5" y2="363.6"/>
        <line id="prefigure-rectangle-c-line-31" x1="293.9" y1="369.6" x2="293.9" y2="363.6"/>
        <line id="prefigure-rectangle-c-line-32" x1="330.3" y1="369.6" x2="330.3" y2="363.6"/>
        <line id="prefigure-rectangle-c-line-33" x1="366.6" y1="369.6" x2="366.6" y2="363.6"/>
        <line id="prefigure-rectangle-c-line-34" x1="403.0" y1="369.6" x2="403.0" y2="363.6"/>
        <line id="prefigure-rectangle-c-line-35" x1="112.1" y1="369.6" x2="112.1" y2="363.6"/>
        <line id="prefigure-rectangle-c-line-36" x1="184.8" y1="369.6" x2="184.8" y2="363.6"/>
        <line id="prefigure-rectangle-c-line-37" x1="257.5" y1="369.6" x2="257.5" y2="363.6"/>
        <line id="prefigure-rectangle-c-line-38" x1="330.3" y1="369.6" x2="330.3" y2="363.6"/>
      </g>
      <line id="prefigure-rectangle-c-line-39" x1="39.4" y1="403.0" x2="39.4" y2="3.0" stroke="black" stroke-width="2"/>
      <g id="prefigure-rectangle-c-g-1">
        <line id="prefigure-rectangle-c-line-40" x1="36.4" y1="330.3" x2="42.4" y2="330.3"/>
        <line id="prefigure-rectangle-c-line-41" x1="36.4" y1="293.9" x2="42.4" y2="293.9"/>
        <line id="prefigure-rectangle-c-line-42" x1="36.4" y1="257.5" x2="42.4" y2="257.5"/>
        <line id="prefigure-rectangle-c-line-43" x1="36.4" y1="221.2" x2="42.4" y2="221.2"/>
        <line id="prefigure-rectangle-c-line-44" x1="36.4" y1="184.8" x2="42.4" y2="184.8"/>
        <line id="prefigure-rectangle-c-line-45" x1="36.4" y1="148.5" x2="42.4" y2="148.5"/>
        <line id="prefigure-rectangle-c-line-46" x1="36.4" y1="112.1" x2="42.4" y2="112.1"/>
        <line id="prefigure-rectangle-c-line-47" x1="36.4" y1="75.7" x2="42.4" y2="75.7"/>
        <line id="prefigure-rectangle-c-line-48" x1="36.4" y1="39.4" x2="42.4" y2="39.4"/>
        <line id="prefigure-rectangle-c-line-49" x1="36.4" y1="3.0" x2="42.4" y2="3.0"/>
        <line id="prefigure-rectangle-c-line-50" x1="36.4" y1="293.9" x2="42.4" y2="293.9"/>
        <line id="prefigure-rectangle-c-line-51" x1="36.4" y1="221.2" x2="42.4" y2="221.2"/>
        <line id="prefigure-rectangle-c-line-52" x1="36.4" y1="148.5" x2="42.4" y2="148.5"/>
        <line id="prefigure-rectangle-c-line-53" x1="36.4" y1="75.7" x2="42.4" y2="75.7"/>
      </g>
    </g>
    <g id="prefigure-rectangle-c-label-0" transform="translate(399.0,362.6) translate(-56.5,-13.2)">
      <g id="prefigure-rectangle-c-g-2">
        <svg xmlns:xlink="http://www.w3.org/1999/xlink" style="vertical-align: -0.400px" width="56.528px" height="13.160px" role="img" focusable="false" viewBox="0 -705 3123 727" x="0.0" y="0.0">
          <defs>
            <path id="prefigure-rectangle-c-MJX-2-TEX-I-1D43A" d="M50 252Q50 367 117 473T286 641T490 704Q580 704 633 653Q642 643 648 636T656 626L657 623Q660 623 684 649Q691 655 699 663T715 679T725 690L740 705H746Q760 705 760 698Q760 694 728 561Q692 422 692 421Q690 416 687 415T669 413H653Q647 419 647 422Q647 423 648 429T650 449T651 481Q651 552 619 605T510 659Q492 659 471 656T418 643T357 615T294 567T236 496T189 394T158 260Q156 242 156 221Q156 173 170 136T206 79T256 45T308 28T353 24Q407 24 452 47T514 106Q517 114 529 161T541 214Q541 222 528 224T468 227H431Q425 233 425 235T427 254Q431 267 437 273H454Q494 271 594 271Q634 271 659 271T695 272T707 272Q721 272 721 263Q721 261 719 249Q714 230 709 228Q706 227 694 227Q674 227 653 224Q646 221 643 215T629 164Q620 131 614 108Q589 6 586 3Q584 1 581 1Q571 1 553 21T530 52Q530 53 528 52T522 47Q448 -22 322 -22Q201 -22 126 55T50 252Z"/>
            <path id="prefigure-rectangle-c-MJX-2-TEX-N-2062" d=""/>
            <path id="prefigure-rectangle-c-MJX-2-TEX-I-1D462" d="M21 287Q21 295 30 318T55 370T99 420T158 442Q204 442 227 417T250 358Q250 340 216 246T182 105Q182 62 196 45T238 27T291 44T328 78L339 95Q341 99 377 247Q407 367 413 387T427 416Q444 431 463 431Q480 431 488 421T496 402L420 84Q419 79 419 68Q419 43 426 35T447 26Q469 29 482 57T512 145Q514 153 532 153Q551 153 551 144Q550 139 549 130T540 98T523 55T498 17T462 -8Q454 -10 438 -10Q372 -10 347 46Q345 45 336 36T318 21T296 6T267 -6T233 -11Q189 -11 155 7Q103 38 103 113Q103 170 138 262T173 379Q173 380 173 381Q173 390 173 393T169 400T158 404H154Q131 404 112 385T82 344T65 302T57 280Q55 278 41 278H27Q21 284 21 287Z"/>
            <path id="prefigure-rectangle-c-MJX-2-TEX-I-1D452" d="M39 168Q39 225 58 272T107 350T174 402T244 433T307 442H310Q355 442 388 420T421 355Q421 265 310 237Q261 224 176 223Q139 223 138 221Q138 219 132 186T125 128Q125 81 146 54T209 26T302 45T394 111Q403 121 406 121Q410 121 419 112T429 98T420 82T390 55T344 24T281 -1T205 -11Q126 -11 83 42T39 168ZM373 353Q367 405 305 405Q272 405 244 391T199 357T170 316T154 280T149 261Q149 260 169 260Q282 260 327 284T373 353Z"/>
            <path id="prefigure-rectangle-c-MJX-2-TEX-I-1D460" d="M131 289Q131 321 147 354T203 415T300 442Q362 442 390 415T419 355Q419 323 402 308T364 292Q351 292 340 300T328 326Q328 342 337 354T354 372T367 378Q368 378 368 379Q368 382 361 388T336 399T297 405Q249 405 227 379T204 326Q204 301 223 291T278 274T330 259Q396 230 396 163Q396 135 385 107T352 51T289 7T195 -10Q118 -10 86 19T53 87Q53 126 74 143T118 160Q133 160 146 151T160 120Q160 94 142 76T111 58Q109 57 108 57T107 55Q108 52 115 47T146 34T201 27Q237 27 263 38T301 66T318 97T323 122Q323 150 302 164T254 181T195 196T148 231Q131 256 131 289Z"/>
            <path id="prefigure-rectangle-c-MJX-2-TEX-I-1D461" d="M26 385Q19 392 19 395Q19 399 22 411T27 425Q29 430 36 430T87 431H140L159 511Q162 522 166 540T173 566T179 586T187 603T197 615T211 624T229 626Q247 625 254 615T261 596Q261 589 252 549T232 470L222 433Q222 431 272 431H323Q330 424 330 420Q330 398 317 385H210L174 240Q135 80 135 68Q135 26 162 26Q197 26 230 60T283 144Q285 150 288 151T303 153H307Q322 153 322 145Q322 142 319 133Q314 117 301 95T267 48T216 6T155 -11Q125 -11 98 4T59 56Q57 64 57 83V101L92 241Q127 382 128 383Q128 385 77 385H26Z"/>
          </defs>
          <g stroke="currentColor" fill="currentColor" stroke-width="0" transform="scale(1,-1)">
            <g data-mml-node="math" data-semantic-type="infixop" data-semantic-role="implicit" data-semantic-annotation="clearspeak:unit" data-semantic-id="11" data-semantic-children="0,1,2,3,4,5" data-semantic-content="6,7,8,9,10" data-semantic-speech="upper G u e s t s">
              <g data-mml-node="mi" data-semantic-type="identifier" data-semantic-role="latinletter" data-semantic-font="italic" data-semantic-annotation="clearspeak:simple" data-semantic-id="0" data-semantic-parent="11" data-semantic-speech="upper G">
                <use data-c="1D43A" xlink:href="#prefigure-rectangle-c-MJX-2-TEX-I-1D43A"/>
              </g>
              <g data-mml-node="mo" data-semantic-type="operator" data-semantic-role="multiplication" data-semantic-id="6" data-semantic-parent="11" data-semantic-added="true" data-semantic-operator="infixop,⁢" data-semantic-speech="times" transform="translate(786,0)">
                <use data-c="2062" xlink:href="#prefigure-rectangle-c-MJX-2-TEX-N-2062"/>
              </g>
              <g data-mml-node="mi" data-semantic-type="identifier" data-semantic-role="latinletter" data-semantic-font="italic" data-semantic-annotation="clearspeak:simple" data-semantic-id="1" data-semantic-parent="11" data-semantic-speech="u" transform="translate(786,0)">
                <use data-c="1D462" xlink:href="#prefigure-rectangle-c-MJX-2-TEX-I-1D462"/>
              </g>
              <g data-mml-node="mo" data-semantic-type="operator" data-semantic-role="multiplication" data-semantic-id="7" data-semantic-parent="11" data-semantic-added="true" data-semantic-operator="infixop,⁢" data-semantic-speech="times" transform="translate(1358,0)">
                <use data-c="2062" xlink:href="#prefigure-rectangle-c-MJX-2-TEX-N-2062"/>
              </g>
              <g data-mml-node="mi" data-semantic-type="identifier" data-semantic-role="latinletter" data-semantic-font="italic" data-semantic-annotation="clearspeak:simple" data-semantic-id="2" data-semantic-parent="11" data-semantic-speech="e" transform="translate(1358,0)">
                <use data-c="1D452" xlink:href="#prefigure-rectangle-c-MJX-2-TEX-I-1D452"/>
              </g>
              <g data-mml-node="mo" data-semantic-type="operator" data-semantic-role="multiplication" data-semantic-id="8" data-semantic-parent="11" data-semantic-added="true" data-semantic-operator="infixop,⁢" data-semantic-speech="times" transform="translate(1824,0)">
                <use data-c="2062" xlink:href="#prefigure-rectangle-c-MJX-2-TEX-N-2062"/>
              </g>
              <g data-mml-node="mi" data-semantic-type="identifier" data-semantic-role="latinletter" data-semantic-font="italic" data-semantic-annotation="clearspeak:simple" data-semantic-id="3" data-semantic-parent="11" data-semantic-speech="s" transform="translate(1824,0)">
                <use data-c="1D460" xlink:href="#prefigure-rectangle-c-MJX-2-TEX-I-1D460"/>
              </g>
              <g data-mml-node="mo" data-semantic-type="operator" data-semantic-role="multiplication" data-semantic-id="9" data-semantic-parent="11" data-semantic-added="true" data-semantic-operator="infixop,⁢" data-semantic-speech="times" transform="translate(2293,0)">
                <use data-c="2062" xlink:href="#prefigure-rectangle-c-MJX-2-TEX-N-2062"/>
              </g>
              <g data-mml-node="mi" data-semantic-type="identifier" data-semantic-role="latinletter" data-semantic-font="italic" data-semantic-annotation="clearspeak:simple" data-semantic-id="4" data-semantic-parent="11" data-semantic-speech="t" transform="translate(2293,0)">
                <use data-c="1D461" xlink:href="#prefigure-rectangle-c-MJX-2-TEX-I-1D461"/>
              </g>
              <g data-mml-node="mo" data-semantic-type="operator" data-semantic-role="multiplication" data-semantic-id="10" data-semantic-parent="11" data-semantic-added="true" data-semantic-operator="infixop,⁢" data-semantic-speech="times" transform="translate(2654,0)">
                <use data-c="2062" xlink:href="#prefigure-rectangle-c-MJX-2-TEX-N-2062"/>
              </g>
              <g data-mml-node="mi" data-semantic-type="identifier" data-semantic-role="latinletter" data-semantic-font="italic" data-semantic-annotation="clearspeak:simple" data-semantic-id="5" data-semantic-parent="11" data-semantic-speech="s" transform="translate(2654,0)">
                <use data-c="1D460" xlink:href="#prefigure-rectangle-c-MJX-2-TEX-I-1D460"/>
              </g>
            </g>
          </g>
        </svg>
      </g>
    </g>
    <g id="prefigure-rectangle-c-label-1" transform="translate(43.4,7.0) translate(0.0,-0.0)">
      <g id="prefigure-rectangle-c-g-3">
        <svg xmlns:xlink="http://www.w3.org/1999/xlink" style="vertical-align: -0.400px" width="37.560px" height="13.160px" role="img" focusable="false" viewBox="0 -705 2075 727" x="0.0" y="0.0">
          <defs>
            <path id="prefigure-rectangle-c-MJX-3-TEX-I-1D436" d="M50 252Q50 367 117 473T286 641T490 704Q580 704 633 653Q642 643 648 636T656 626L657 623Q660 623 684 649Q691 655 699 663T715 679T725 690L740 705H746Q760 705 760 698Q760 694 728 561Q692 422 692 421Q690 416 687 415T669 413H653Q647 419 647 422Q647 423 648 429T650 449T651 481Q651 552 619 605T510 659Q484 659 454 652T382 628T299 572T226 479Q194 422 175 346T156 222Q156 108 232 58Q280 24 350 24Q441 24 512 92T606 240Q610 253 612 255T628 257Q648 257 648 248Q648 243 647 239Q618 132 523 55T319 -22Q206 -22 128 53T50 252Z"/>
            <path id="prefigure-rectangle-c-MJX-3-TEX-N-2062" d=""/>
            <path id="prefigure-rectangle-c-MJX-3-TEX-I-1D45C" d="M201 -11Q126 -11 80 38T34 156Q34 221 64 279T146 380Q222 441 301 441Q333 441 341 440Q354 437 367 433T402 417T438 387T464 338T476 268Q476 161 390 75T201 -11ZM121 120Q121 70 147 48T206 26Q250 26 289 58T351 142Q360 163 374 216T388 308Q388 352 370 375Q346 405 306 405Q243 405 195 347Q158 303 140 230T121 120Z"/>
            <path id="prefigure-rectangle-c-MJX-3-TEX-I-1D460" d="M131 289Q131 321 147 354T203 415T300 442Q362 442 390 415T419 355Q419 323 402 308T364 292Q351 292 340 300T328 326Q328 342 337 354T354 372T367 378Q368 378 368 379Q368 382 361 388T336 399T297 405Q249 405 227 379T204 326Q204 301 223 291T278 274T330 259Q396 230 396 163Q396 135 385 107T352 51T289 7T195 -10Q118 -10 86 19T53 87Q53 126 74 143T118 160Q133 160 146 151T160 120Q160 94 142 76T111 58Q109 57 108 57T107 55Q108 52 115 47T146 34T201 27Q237 27 263 38T301 66T318 97T323 122Q323 150 302 164T254 181T195 196T148 231Q131 256 131 289Z"/>
            <path id="prefigure-rectangle-c-MJX-3-TEX-I-1D461" d="M26 385Q19 392 19 395Q19 399 22 411T27 425Q29 430 36 430T87 431H140L159 511Q162 522 166 540T173 566T179 586T187 603T197 615T211 624T229 626Q247 625 254 615T261 596Q261 589 252 549T232 470L222 433Q222 431 272 431H323Q330 424 330 420Q330 398 317 385H210L174 240Q135 80 135 68Q135 26 162 26Q197 26 230 60T283 144Q285 150 288 151T303 153H307Q322 153 322 145Q322 142 319 133Q314 117 301 95T267 48T216 6T155 -11Q125 -11 98 4T59 56Q57 64 57 83V101L92 241Q127 382 128 383Q128 385 77 385H26Z"/>
          </defs>
          <g stroke="currentColor" fill="currentColor" stroke-width="0" transform="scale(1,-1)">
            <g data-mml-node="math" data-semantic-type="infixop" data-semantic-role="implicit" data-semantic-annotation="clearspeak:unit" data-semantic-id="7" data-semantic-children="0,1,2,3" data-semantic-content="4,5,6" data-semantic-speech="upper C o s t">
              <g data-mml-node="mi" data-semantic-type="identifier" data-semantic-role="latinletter" data-semantic-font="italic" data-semantic-annotation="clearspeak:simple" data-semantic-id="0" data-semantic-parent="7" data-semantic-speech="upper C">
                <use data-c="1D436" xlink:href="#prefigure-rectangle-c-MJX-3-TEX-I-1D436"/>
              </g>
              <g data-mml-node="mo" data-semantic-type="operator" data-semantic-role="multiplication" data-semantic-id="4" data-semantic-parent="7" data-semantic-added="true" data-semantic-operator="infixop,⁢" data-semantic-speech="times" transform="translate(760,0)">
                <use data-c="2062" xlink:href="#prefigure-rectangle-c-MJX-3-TEX-N-2062"/>
              </g>
              <g data-mml-node="mi" data-semantic-type="identifier" data-semantic-role="latinletter" data-semantic-font="italic" data-semantic-annotation="clearspeak:simple" data-semantic-id="1" data-semantic-parent="7" data-semantic-speech="o" transform="translate(760,0)">
                <use data-c="1D45C" xlink:href="#prefigure-rectangle-c-MJX-3-TEX-I-1D45C"/>
              </g>
              <g data-mml-node="mo" data-semantic-type="operator" data-semantic-role="multiplication" data-semantic-id="5" data-semantic-parent="7" data-semantic-added="true" data-semantic-operator="infixop,⁢" data-semantic-speech="times" transform="translate(1245,0)">
                <use data-c="2062" xlink:href="#prefigure-rectangle-c-MJX-3-TEX-N-2062"/>
              </g>
              <g data-mml-node="mi" data-semantic-type="identifier" data-semantic-role="latinletter" data-semantic-font="italic" data-semantic-annotation="clearspeak:simple" data-semantic-id="2" data-semantic-parent="7" data-semantic-speech="s" transform="translate(1245,0)">
                <use data-c="1D460" xlink:href="#prefigure-rectangle-c-MJX-3-TEX-I-1D460"/>
              </g>
              <g data-mml-node="mo" data-semantic-type="operator" data-semantic-role="multiplication" data-semantic-id="6" data-semantic-parent="7" data-semantic-added="true" data-semantic-operator="infixop,⁢" data-semantic-speech="times" transform="translate(1714,0)">
                <use data-c="2062" xlink:href="#prefigure-rectangle-c-MJX-3-TEX-N-2062"/>
              </g>
              <g data-mml-node="mi" data-semantic-type="identifier" data-semantic-role="latinletter" data-semantic-font="italic" data-semantic-annotation="clearspeak:simple" data-semantic-id="3" data-semantic-parent="7" data-semantic-speech="t" transform="translate(1714,0)">
                <use data-c="1D461" xlink:href="#prefigure-rectangle-c-MJX-3-TEX-I-1D461"/>
              </g>
            </g>
          </g>
        </svg>
      </g>
    </g>
    <g id="prefigure-rectangle-c-label-2" transform="translate(112.1,377.6) translate(-13.6,-0.0)">
      <g id="prefigure-rectangle-c-g-4">
        <svg xmlns:xlink="http://www.w3.org/1999/xlink" style="vertical-align: -0.400px" width="27.152px" height="12.456px" role="img" focusable="false" viewBox="0 -666 1500 688" x="0.0" y="0.0">
          <defs>
            <path id="prefigure-rectangle-c-MJX-4-TEX-N-31" d="M213 578L200 573Q186 568 160 563T102 556H83V602H102Q149 604 189 617T245 641T273 663Q275 666 285 666Q294 666 302 660V361L303 61Q310 54 315 52T339 48T401 46H427V0H416Q395 3 257 3Q121 3 100 0H88V46H114Q136 46 152 46T177 47T193 50T201 52T207 57T213 61V578Z"/>
            <path id="prefigure-rectangle-c-MJX-4-TEX-N-30" d="M96 585Q152 666 249 666Q297 666 345 640T423 548Q460 465 460 320Q460 165 417 83Q397 41 362 16T301 -15T250 -22Q224 -22 198 -16T137 16T82 83Q39 165 39 320Q39 494 96 585ZM321 597Q291 629 250 629Q208 629 178 597Q153 571 145 525T137 333Q137 175 145 125T181 46Q209 16 250 16Q290 16 318 46Q347 76 354 130T362 333Q362 478 354 524T321 597Z"/>
          </defs>
          <g stroke="currentColor" fill="currentColor" stroke-width="0" transform="scale(1,-1)">
            <g data-mml-node="math">
              <g data-mml-node="mtext" data-semantic-type="text" data-semantic-role="unknown" data-semantic-font="normal" data-semantic-annotation="clearspeak:unit" data-semantic-id="0" data-semantic-speech="100">
                <use data-c="31" xlink:href="#prefigure-rectangle-c-MJX-4-TEX-N-31"/>
                <use data-c="30" xlink:href="#prefigure-rectangle-c-MJX-4-TEX-N-30" transform="translate(500,0)"/>
                <use data-c="30" xlink:href="#prefigure-rectangle-c-MJX-4-TEX-N-30" transform="translate(1000,0)"/>
              </g>
            </g>
          </g>
        </svg>
      </g>
    </g>
    <g id="prefigure-rectangle-c-label-3" transform="translate(184.8,377.6) translate(-13.6,-0.0)">
      <g id="prefigure-rectangle-c-g-5">
        <svg xmlns:xlink="http://www.w3.org/1999/xlink" style="vertical-align: -0.400px" width="27.152px" height="12.456px" role="img" focusable="false" viewBox="0 -666 1500 688" x="0.0" y="0.0">
          <defs>
            <path id="prefigure-rectangle-c-MJX-5-TEX-N-32" d="M109 429Q82 429 66 447T50 491Q50 562 103 614T235 666Q326 666 387 610T449 465Q449 422 429 383T381 315T301 241Q265 210 201 149L142 93L218 92Q375 92 385 97Q392 99 409 186V189H449V186Q448 183 436 95T421 3V0H50V19V31Q50 38 56 46T86 81Q115 113 136 137Q145 147 170 174T204 211T233 244T261 278T284 308T305 340T320 369T333 401T340 431T343 464Q343 527 309 573T212 619Q179 619 154 602T119 569T109 550Q109 549 114 549Q132 549 151 535T170 489Q170 464 154 447T109 429Z"/>
            <path id="prefigure-rectangle-c-MJX-5-TEX-N-30" d="M96 585Q152 666 249 666Q297 666 345 640T423 548Q460 465 460 320Q460 165 417 83Q397 41 362 16T301 -15T250 -22Q224 -22 198 -16T137 16T82 83Q39 165 39 320Q39 494 96 585ZM321 597Q291 629 250 629Q208 629 178 597Q153 571 145 525T137 333Q137 175 145 125T181 46Q209 16 250 16Q290 16 318 46Q347 76 354 130T362 333Q362 478 354 524T321 597Z"/>
          </defs>
          <g stroke="currentColor" fill="currentColor" stroke-width="0" transform="scale(1,-1)">
            <g data-mml-node="math">
              <g data-mml-node="mtext" data-semantic-type="text" data-semantic-role="unknown" data-semantic-font="normal" data-semantic-annotation="clearspeak:unit" data-semantic-id="0" data-semantic-speech="200">
                <use data-c="32" xlink:href="#prefigure-rectangle-c-MJX-5-TEX-N-32"/>
                <use data-c="30" xlink:href="#prefigure-rectangle-c-MJX-5-TEX-N-30" transform="translate(500,0)"/>
                <use data-c="30" xlink:href="#prefigure-rectangle-c-MJX-5-TEX-N-30" transform="translate(1000,0)"/>
              </g>
            </g>
          </g>
        </svg>
      </g>
    </g>
    <g id="prefigure-rectangle-c-label-4" transform="translate(257.5,377.6) translate(-13.6,-0.0)">
      <g id="prefigure-rectangle-c-g-6">
        <svg xmlns:xlink="http://www.w3.org/1999/xlink" style="vertical-align: -0.400px" width="27.152px" height="12.456px" role="img" focusable="false" viewBox="0 -666 1500 688" x="0.0" y="0.0">
          <defs>
            <path id="prefigure-rectangle-c-MJX-6-TEX-N-33" d="M127 463Q100 463 85 480T69 524Q69 579 117 622T233 665Q268 665 277 664Q351 652 390 611T430 522Q430 470 396 421T302 350L299 348Q299 347 308 345T337 336T375 315Q457 262 457 175Q457 96 395 37T238 -22Q158 -22 100 21T42 130Q42 158 60 175T105 193Q133 193 151 175T169 130Q169 119 166 110T159 94T148 82T136 74T126 70T118 67L114 66Q165 21 238 21Q293 21 321 74Q338 107 338 175V195Q338 290 274 322Q259 328 213 329L171 330L168 332Q166 335 166 348Q166 366 174 366Q202 366 232 371Q266 376 294 413T322 525V533Q322 590 287 612Q265 626 240 626Q208 626 181 615T143 592T132 580H135Q138 579 143 578T153 573T165 566T175 555T183 540T186 520Q186 498 172 481T127 463Z"/>
            <path id="prefigure-rectangle-c-MJX-6-TEX-N-30" d="M96 585Q152 666 249 666Q297 666 345 640T423 548Q460 465 460 320Q460 165 417 83Q397 41 362 16T301 -15T250 -22Q224 -22 198 -16T137 16T82 83Q39 165 39 320Q39 494 96 585ZM321 597Q291 629 250 629Q208 629 178 597Q153 571 145 525T137 333Q137 175 145 125T181 46Q209 16 250 16Q290 16 318 46Q347 76 354 130T362 333Q362 478 354 524T321 597Z"/>
          </defs>
          <g stroke="currentColor" fill="currentColor" stroke-width="0" transform="scale(1,-1)">
            <g data-mml-node="math">
              <g data-mml-node="mtext" data-semantic-type="text" data-semantic-role="unknown" data-semantic-font="normal" data-semantic-annotation="clearspeak:unit" data-semantic-id="0" data-semantic-speech="300">
                <use data-c="33" xlink:href="#prefigure-rectangle-c-MJX-6-TEX-N-33"/>
                <use data-c="30" xlink:href="#prefigure-rectangle-c-MJX-6-TEX-N-30" transform="translate(500,0)"/>
                <use data-c="30" xlink:href="#prefigure-rectangle-c-MJX-6-TEX-N-30" transform="translate(1000,0)"/>
              </g>
            </g>
          </g>
        </svg>
      </g>
    </g>
    <g id="prefigure-rectangle-c-label-5" transform="translate(330.3,377.6) translate(-13.6,-0.0)">
      <g id="prefigure-rectangle-c-g-7">
        <svg xmlns:xlink="http://www.w3.org/1999/xlink" style="vertical-align: -0.400px" width="27.152px" height="12.648px" role="img" focusable="false" viewBox="0 -677 1500 699" x="0.0" y="0.0">
          <defs>
            <path id="prefigure-rectangle-c-MJX-7-TEX-N-34" d="M462 0Q444 3 333 3Q217 3 199 0H190V46H221Q241 46 248 46T265 48T279 53T286 61Q287 63 287 115V165H28V211L179 442Q332 674 334 675Q336 677 355 677H373L379 671V211H471V165H379V114Q379 73 379 66T385 54Q393 47 442 46H471V0H462ZM293 211V545L74 212L183 211H293Z"/>
            <path id="prefigure-rectangle-c-MJX-7-TEX-N-30" d="M96 585Q152 666 249 666Q297 666 345 640T423 548Q460 465 460 320Q460 165 417 83Q397 41 362 16T301 -15T250 -22Q224 -22 198 -16T137 16T82 83Q39 165 39 320Q39 494 96 585ZM321 597Q291 629 250 629Q208 629 178 597Q153 571 145 525T137 333Q137 175 145 125T181 46Q209 16 250 16Q290 16 318 46Q347 76 354 130T362 333Q362 478 354 524T321 597Z"/>
          </defs>
          <g stroke="currentColor" fill="currentColor" stroke-width="0" transform="scale(1,-1)">
            <g data-mml-node="math">
              <g data-mml-node="mtext" data-semantic-type="text" data-semantic-role="unknown" data-semantic-font="normal" data-semantic-annotation="clearspeak:unit" data-semantic-id="0" data-semantic-speech="400">
                <use data-c="34" xlink:href="#prefigure-rectangle-c-MJX-7-TEX-N-34"/>
                <use data-c="30" xlink:href="#prefigure-rectangle-c-MJX-7-TEX-N-30" transform="translate(500,0)"/>
                <use data-c="30" xlink:href="#prefigure-rectangle-c-MJX-7-TEX-N-30" transform="translate(1000,0)"/>
              </g>
            </g>
          </g>
        </svg>
      </g>
    </g>
    <g id="prefigure-rectangle-c-label-6" transform="translate(28.4,293.9) translate(-50.3,-7.8)">
      <g id="prefigure-rectangle-c-g-8">
        <svg xmlns:xlink="http://www.w3.org/1999/xlink" style="vertical-align: -3.512px" width="50.280px" height="15.568px" role="img" focusable="false" viewBox="0 -666 2778 860" x="0.0" y="0.0">
          <defs>
            <path id="prefigure-rectangle-c-MJX-8-TEX-N-31" d="M213 578L200 573Q186 568 160 563T102 556H83V602H102Q149 604 189 617T245 641T273 663Q275 666 285 666Q294 666 302 660V361L303 61Q310 54 315 52T339 48T401 46H427V0H416Q395 3 257 3Q121 3 100 0H88V46H114Q136 46 152 46T177 47T193 50T201 52T207 57T213 61V578Z"/>
            <path id="prefigure-rectangle-c-MJX-8-TEX-N-30" d="M96 585Q152 666 249 666Q297 666 345 640T423 548Q460 465 460 320Q460 165 417 83Q397 41 362 16T301 -15T250 -22Q224 -22 198 -16T137 16T82 83Q39 165 39 320Q39 494 96 585ZM321 597Q291 629 250 629Q208 629 178 597Q153 571 145 525T137 333Q137 175 145 125T181 46Q209 16 250 16Q290 16 318 46Q347 76 354 130T362 333Q362 478 354 524T321 597Z"/>
            <path id="prefigure-rectangle-c-MJX-8-TEX-N-2C" d="M78 35T78 60T94 103T137 121Q165 121 187 96T210 8Q210 -27 201 -60T180 -117T154 -158T130 -185T117 -194Q113 -194 104 -185T95 -172Q95 -168 106 -156T131 -126T157 -76T173 -3V9L172 8Q170 7 167 6T161 3T152 1T140 0Q113 0 96 17Z"/>
          </defs>
          <g stroke="currentColor" fill="currentColor" stroke-width="0" transform="scale(1,-1)">
            <g data-mml-node="math">
              <g data-mml-node="mrow" data-semantic-type="punctuated" data-semantic-role="text" data-semantic-id="3" data-semantic-children="0,1" data-semantic-collapsed="(3 (c 2) 0 1)" data-semantic-speech="10 comma 000">
                <g data-mml-node="mtext" data-semantic-type="text" data-semantic-role="unknown" data-semantic-font="normal" data-semantic-annotation="clearspeak:unit" data-semantic-id="0" data-semantic-parent="3" data-semantic-speech="10 comma">
                  <use data-c="31" xlink:href="#prefigure-rectangle-c-MJX-8-TEX-N-31"/>
                  <use data-c="30" xlink:href="#prefigure-rectangle-c-MJX-8-TEX-N-30" transform="translate(500,0)"/>
                  <use data-c="2C" xlink:href="#prefigure-rectangle-c-MJX-8-TEX-N-2C" transform="translate(1000,0)"/>
                </g>
                <g data-mml-node="mtext" data-semantic-type="text" data-semantic-role="unknown" data-semantic-font="normal" data-semantic-annotation="clearspeak:unit" data-semantic-id="1" data-semantic-parent="3" data-semantic-speech="000" transform="translate(1278,0)">
                  <use data-c="30" xlink:href="#prefigure-rectangle-c-MJX-8-TEX-N-30"/>
                  <use data-c="30" xlink:href="#prefigure-rectangle-c-MJX-8-TEX-N-30" transform="translate(500,0)"/>
                  <use data-c="30" xlink:href="#prefigure-rectangle-c-MJX-8-TEX-N-30" transform="translate(1000,0)"/>
                </g>
              </g>
            </g>
          </g>
        </svg>
      </g>
    </g>
    <g id="prefigure-rectangle-c-label-7" transform="translate(28.4,221.2) translate(-50.3,-7.8)">
      <g id="prefigure-rectangle-c-g-9">
        <svg xmlns:xlink="http://www.w3.org/1999/xlink" style="vertical-align: -3.512px" width="50.280px" height="15.568px" role="img" focusable="false" viewBox="0 -666 2778 860" x="0.0" y="0.0">
          <defs>
            <path id="prefigure-rectangle-c-MJX-9-TEX-N-32" d="M109 429Q82 429 66 447T50 491Q50 562 103 614T235 666Q326 666 387 610T449 465Q449 422 429 383T381 315T301 241Q265 210 201 149L142 93L218 92Q375 92 385 97Q392 99 409 186V189H449V186Q448 183 436 95T421 3V0H50V19V31Q50 38 56 46T86 81Q115 113 136 137Q145 147 170 174T204 211T233 244T261 278T284 308T305 340T320 369T333 401T340 431T343 464Q343 527 309 573T212 619Q179 619 154 602T119 569T109 550Q109 549 114 549Q132 549 151 535T170 489Q170 464 154 447T109 429Z"/>
            <path id="prefigure-rectangle-c-MJX-9-TEX-N-30" d="M96 585Q152 666 249 666Q297 666 345 640T423 548Q460 465 460 320Q460 165 417 83Q397 41 362 16T301 -15T250 -22Q224 -22 198 -16T137 16T82 83Q39 165 39 320Q39 494 96 585ZM321 597Q291 629 250 629Q208 629 178 597Q153 571 145 525T137 333Q137 175 145 125T181 46Q209 16 250 16Q290 16 318 46Q347 76 354 130T362 333Q362 478 354 524T321 597Z"/>
            <path id="prefigure-rectangle-c-MJX-9-TEX-N-2C" d="M78 35T78 60T94 103T137 121Q165 121 187 96T210 8Q210 -27 201 -60T180 -117T154 -158T130 -185T117 -194Q113 -194 104 -185T95 -172Q95 -168 106 -156T131 -126T157 -76T173 -3V9L172 8Q170 7 167 6T161 3T152 1T140 0Q113 0 96 17Z"/>
          </defs>
          <g stroke="currentColor" fill="currentColor" stroke-width="0" transform="scale(1,-1)">
            <g data-mml-node="math">
              <g data-mml-node="mrow" data-semantic-type="punctuated" data-semantic-role="text" data-semantic-id="3" data-semantic-children="0,1" data-semantic-collapsed="(3 (c 2) 0 1)" data-semantic-speech="20 comma 000">
                <g data-mml-node="mtext" data-semantic-type="text" data-semantic-role="unknown" data-semantic-font="normal" data-semantic-annotation="clearspeak:unit" data-semantic-id="0" data-semantic-parent="3" data-semantic-speech="20 comma">
                  <use data-c="32" xlink:href="#prefigure-rectangle-c-MJX-9-TEX-N-32"/>
                  <use data-c="30" xlink:href="#prefigure-rectangle-c-MJX-9-TEX-N-30" transform="translate(500,0)"/>
                  <use data-c="2C" xlink:href="#prefigure-rectangle-c-MJX-9-TEX-N-2C" transform="translate(1000,0)"/>
                </g>
                <g data-mml-node="mtext" data-semantic-type="text" data-semantic-role="unknown" data-semantic-font="normal" data-semantic-annotation="clearspeak:unit" data-semantic-id="1" data-semantic-parent="3" data-semantic-speech="000" transform="translate(1278,0)">
                  <use data-c="30" xlink:href="#prefigure-rectangle-c-MJX-9-TEX-N-30"/>
                  <use data-c="30" xlink:href="#prefigure-rectangle-c-MJX-9-TEX-N-30" transform="translate(500,0)"/>
                  <use data-c="30" xlink:href="#prefigure-rectangle-c-MJX-9-TEX-N-30" transform="translate(1000,0)"/>
                </g>
              </g>
            </g>
          </g>
        </svg>
      </g>
    </g>
    <g id="prefigure-rectangle-c-label-8" transform="translate(28.4,148.5) translate(-50.3,-7.8)">
      <g id="prefigure-rectangle-c-g-10">
        <svg xmlns:xlink="http://www.w3.org/1999/xlink" style="vertical-align: -3.512px" width="50.280px" height="15.568px" role="img" focusable="false" viewBox="0 -666 2778 860" x="0.0" y="0.0">
          <defs>
            <path id="prefigure-rectangle-c-MJX-10-TEX-N-33" d="M127 463Q100 463 85 480T69 524Q69 579 117 622T233 665Q268 665 277 664Q351 652 390 611T430 522Q430 470 396 421T302 350L299 348Q299 347 308 345T337 336T375 315Q457 262 457 175Q457 96 395 37T238 -22Q158 -22 100 21T42 130Q42 158 60 175T105 193Q133 193 151 175T169 130Q169 119 166 110T159 94T148 82T136 74T126 70T118 67L114 66Q165 21 238 21Q293 21 321 74Q338 107 338 175V195Q338 290 274 322Q259 328 213 329L171 330L168 332Q166 335 166 348Q166 366 174 366Q202 366 232 371Q266 376 294 413T322 525V533Q322 590 287 612Q265 626 240 626Q208 626 181 615T143 592T132 580H135Q138 579 143 578T153 573T165 566T175 555T183 540T186 520Q186 498 172 481T127 463Z"/>
            <path id="prefigure-rectangle-c-MJX-10-TEX-N-30" d="M96 585Q152 666 249 666Q297 666 345 640T423 548Q460 465 460 320Q460 165 417 83Q397 41 362 16T301 -15T250 -22Q224 -22 198 -16T137 16T82 83Q39 165 39 320Q39 494 96 585ZM321 597Q291 629 250 629Q208 629 178 597Q153 571 145 525T137 333Q137 175 145 125T181 46Q209 16 250 16Q290 16 318 46Q347 76 354 130T362 333Q362 478 354 524T321 597Z"/>
            <path id="prefigure-rectangle-c-MJX-10-TEX-N-2C" d="M78 35T78 60T94 103T137 121Q165 121 187 96T210 8Q210 -27 201 -60T180 -117T154 -158T130 -185T117 -194Q113 -194 104 -185T95 -172Q95 -168 106 -156T131 -126T157 -76T173 -3V9L172 8Q170 7 167 6T161 3T152 1T140 0Q113 0 96 17Z"/>
          </defs>
          <g stroke="currentColor" fill="currentColor" stroke-width="0" transform="scale(1,-1)">
            <g data-mml-node="math">
              <g data-mml-node="mrow" data-semantic-type="punctuated" data-semantic-role="text" data-semantic-id="3" data-semantic-children="0,1" data-semantic-collapsed="(3 (c 2) 0 1)" data-semantic-speech="30 comma 000">
                <g data-mml-node="mtext" data-semantic-type="text" data-semantic-role="unknown" data-semantic-font="normal" data-semantic-annotation="clearspeak:unit" data-semantic-id="0" data-semantic-parent="3" data-semantic-speech="30 comma">
                  <use data-c="33" xlink:href="#prefigure-rectangle-c-MJX-10-TEX-N-33"/>
                  <use data-c="30" xlink:href="#prefigure-rectangle-c-MJX-10-TEX-N-30" transform="translate(500,0)"/>
                  <use data-c="2C" xlink:href="#prefigure-rectangle-c-MJX-10-TEX-N-2C" transform="translate(1000,0)"/>
                </g>
                <g data-mml-node="mtext" data-semantic-type="text" data-semantic-role="unknown" data-semantic-font="normal" data-semantic-annotation="clearspeak:unit" data-semantic-id="1" data-semantic-parent="3" data-semantic-speech="000" transform="translate(1278,0)">
                  <use data-c="30" xlink:href="#prefigure-rectangle-c-MJX-10-TEX-N-30"/>
                  <use data-c="30" xlink:href="#prefigure-rectangle-c-MJX-10-TEX-N-30" transform="translate(500,0)"/>
                  <use data-c="30" xlink:href="#prefigure-rectangle-c-MJX-10-TEX-N-30" transform="translate(1000,0)"/>
                </g>
              </g>
            </g>
          </g>
        </svg>
      </g>
    </g>
    <g id="prefigure-rectangle-c-label-9" transform="translate(28.4,75.7) translate(-50.3,-7.9)">
      <g id="prefigure-rectangle-c-g-11">
        <svg xmlns:xlink="http://www.w3.org/1999/xlink" style="vertical-align: -3.512px" width="50.280px" height="15.768px" role="img" focusable="false" viewBox="0 -677 2778 871" x="0.0" y="0.0">
          <defs>
            <path id="prefigure-rectangle-c-MJX-11-TEX-N-34" d="M462 0Q444 3 333 3Q217 3 199 0H190V46H221Q241 46 248 46T265 48T279 53T286 61Q287 63 287 115V165H28V211L179 442Q332 674 334 675Q336 677 355 677H373L379 671V211H471V165H379V114Q379 73 379 66T385 54Q393 47 442 46H471V0H462ZM293 211V545L74 212L183 211H293Z"/>
            <path id="prefigure-rectangle-c-MJX-11-TEX-N-30" d="M96 585Q152 666 249 666Q297 666 345 640T423 548Q460 465 460 320Q460 165 417 83Q397 41 362 16T301 -15T250 -22Q224 -22 198 -16T137 16T82 83Q39 165 39 320Q39 494 96 585ZM321 597Q291 629 250 629Q208 629 178 597Q153 571 145 525T137 333Q137 175 145 125T181 46Q209 16 250 16Q290 16 318 46Q347 76 354 130T362 333Q362 478 354 524T321 597Z"/>
            <path id="prefigure-rectangle-c-MJX-11-TEX-N-2C" d="M78 35T78 60T94 103T137 121Q165 121 187 96T210 8Q210 -27 201 -60T180 -117T154 -158T130 -185T117 -194Q113 -194 104 -185T95 -172Q95 -168 106 -156T131 -126T157 -76T173 -3V9L172 8Q170 7 167 6T161 3T152 1T140 0Q113 0 96 17Z"/>
          </defs>
          <g stroke="currentColor" fill="currentColor" stroke-width="0" transform="scale(1,-1)">
            <g data-mml-node="math">
              <g data-mml-node="mrow" data-semantic-type="punctuated" data-semantic-role="text" data-semantic-id="3" data-semantic-children="0,1" data-semantic-collapsed="(3 (c 2) 0 1)" data-semantic-speech="40 comma 000">
                <g data-mml-node="mtext" data-semantic-type="text" data-semantic-role="unknown" data-semantic-font="normal" data-semantic-annotation="clearspeak:unit" data-semantic-id="0" data-semantic-parent="3" data-semantic-speech="40 comma">
                  <use data-c="34" xlink:href="#prefigure-rectangle-c-MJX-11-TEX-N-34"/>
                  <use data-c="30" xlink:href="#prefigure-rectangle-c-MJX-11-TEX-N-30" transform="translate(500,0)"/>
                  <use data-c="2C" xlink:href="#prefigure-rectangle-c-MJX-11-TEX-N-2C" transform="translate(1000,0)"/>
                </g>
                <g data-mml-node="mtext" data-semantic-type="text" data-semantic-role="unknown" data-semantic-font="normal" data-semantic-annotation="clearspeak:unit" data-semantic-id="1" data-semantic-parent="3" data-semantic-speech="000" transform="translate(1278,0)">
                  <use data-c="30" xlink:href="#prefigure-rectangle-c-MJX-11-TEX-N-30"/>
                  <use data-c="30" xlink:href="#prefigure-rectangle-c-MJX-11-TEX-N-30" transform="translate(500,0)"/>
                  <use data-c="30" xlink:href="#prefigure-rectangle-c-MJX-11-TEX-N-30" transform="translate(1000,0)"/>
                </g>
              </g>
            </g>
          </g>
        </svg>
      </g>
    </g>
  </g>
</svg>
