<svg xmlns="http://www.w3.org/2000/svg" id="prefigure-rectangle-figure" width="310" height="310" viewBox="0 0 310 310">
  <defs>
    <clipPath id="prefigure-rectangle-clipPath-0">
      <rect x="5.0" y="5.0" width="300.0" height="300.0"/>
    </clipPath>
    <clipPath id="prefigure-rectangle-clipPath-1">
      <rect x="5.0" y="5.0" width="300.0" height="300.0"/>
    </clipPath>
  </defs>
  <g id="prefigure-rectangle-grid-axes">
    <g id="prefigure-rectangle-grid" stroke="#ccc" stroke-width="1">
      <line x1="5.0" y1="305.0" x2="5.0" y2="5.0"/>
      <line x1="38.3" y1="305.0" x2="38.3" y2="5.0"/>
      <line x1="71.7" y1="305.0" x2="71.7" y2="5.0"/>
      <line x1="105.0" y1="305.0" x2="105.0" y2="5.0"/>
      <line x1="138.3" y1="305.0" x2="138.3" y2="5.0"/>
      <line x1="171.7" y1="305.0" x2="171.7" y2="5.0"/>
      <line x1="205.0" y1="305.0" x2="205.0" y2="5.0"/>
      <line x1="238.3" y1="305.0" x2="238.3" y2="5.0"/>
      <line x1="271.7" y1="305.0" x2="271.7" y2="5.0"/>
      <line x1="305.0" y1="305.0" x2="305.0" y2="5.0"/>
      <line x1="5.0" y1="305.0" x2="305.0" y2="305.0"/>
      <line x1="5.0" y1="271.7" x2="305.0" y2="271.7"/>
      <line x1="5.0" y1="238.3" x2="305.0" y2="238.3"/>
      <line x1="5.0" y1="205.0" x2="305.0" y2="205.0"/>
      <line x1="5.0" y1="171.7" x2="305.0" y2="171.7"/>
      <line x1="5.0" y1="138.3" x2="305.0" y2="138.3"/>
      <line x1="5.0" y1="105.0" x2="305.0" y2="105.0"/>
      <line x1="5.0" y1="71.7" x2="305.0" y2="71.7"/>
      <line x1="5.0" y1="38.3" x2="305.0" y2="38.3"/>
      <line x1="5.0" y1="5.0" x2="305.0" y2="5.0"/>
    </g>
    <g id="prefigure-rectangle-axes" stroke="black" stroke-width="2">
      <line id="prefigure-rectangle-line-20" x1="5.0" y1="171.7" x2="305.0" y2="171.7" stroke="black" stroke-width="2"/>
      <g id="prefigure-rectangle-g-0">
        <line id="prefigure-rectangle-line-21" x1="5.0" y1="174.7" x2="5.0" y2="168.7"/>
        <line id="prefigure-rectangle-line-22" x1="38.3" y1="174.7" x2="38.3" y2="168.7"/>
        <line id="prefigure-rectangle-line-23" x1="71.7" y1="174.7" x2="71.7" y2="168.7"/>
        <line id="prefigure-rectangle-line-24" x1="105.0" y1="174.7" x2="105.0" y2="168.7"/>
        <line id="prefigure-rectangle-line-25" x1="171.7" y1="174.7" x2="171.7" y2="168.7"/>
        <line id="prefigure-rectangle-line-26" x1="205.0" y1="174.7" x2="205.0" y2="168.7"/>
        <line id="prefigure-rectangle-line-27" x1="238.3" y1="174.7" x2="238.3" y2="168.7"/>
        <line id="prefigure-rectangle-line-28" x1="271.7" y1="174.7" x2="271.7" y2="168.7"/>
        <line id="prefigure-rectangle-line-29" x1="305.0" y1="174.7" x2="305.0" y2="168.7"/>
        <line id="prefigure-rectangle-line-30" x1="71.7" y1="174.7" x2="71.7" y2="168.7"/>
        <line id="prefigure-rectangle-line-31" x1="205.0" y1="174.7" x2="205.0" y2="168.7"/>
        <line id="prefigure-rectangle-line-32" x1="271.7" y1="174.7" x2="271.7" y2="168.7"/>
      </g>
      <line id="prefigure-rectangle-line-33" x1="138.3" y1="305.0" x2="138.3" y2="5.0" stroke="black" stroke-width="2"/>
      <g id="prefigure-rectangle-g-1">
        <line id="prefigure-rectangle-line-34" x1="135.3" y1="305.0" x2="141.3" y2="305.0"/>
        <line id="prefigure-rectangle-line-35" x1="135.3" y1="271.7" x2="141.3" y2="271.7"/>
        <line id="prefigure-rectangle-line-36" x1="135.3" y1="238.3" x2="141.3" y2="238.3"/>
        <line id="prefigure-rectangle-line-37" x1="135.3" y1="205.0" x2="141.3" y2="205.0"/>
        <line id="prefigure-rectangle-line-38" x1="135.3" y1="138.3" x2="141.3" y2="138.3"/>
        <line id="prefigure-rectangle-line-39" x1="135.3" y1="105.0" x2="141.3" y2="105.0"/>
        <line id="prefigure-rectangle-line-40" x1="135.3" y1="71.7" x2="141.3" y2="71.7"/>
        <line id="prefigure-rectangle-line-41" x1="135.3" y1="38.3" x2="141.3" y2="38.3"/>
        <line id="prefigure-rectangle-line-42" x1="135.3" y1="5.0" x2="141.3" y2="5.0"/>
        <line id="prefigure-rectangle-line-43" x1="135.3" y1="238.3" x2="141.3" y2="238.3"/>
        <line id="prefigure-rectangle-line-44" x1="135.3" y1="105.0" x2="141.3" y2="105.0"/>
        <line id="prefigure-rectangle-line-45" x1="135.3" y1="38.3" x2="141.3" y2="38.3"/>
      </g>
    </g>
    <g id="prefigure-rectangle-label-0" transform="translate(301.0,167.7) translate(-10.4,-8.2)">
      <g id="prefigure-rectangle-g-2">
        <svg xmlns:xlink="http://www.w3.org/1999/xlink" style="vertical-align: -0.200px" width="10.352px" height="8.200px" role="img" focusable="false" viewBox="0 -442 572 453" x="0.0" y="0.0">
          <defs>
            <path id="prefigure-rectangle-MJX-2-TEX-I-1D465" d="M52 289Q59 331 106 386T222 442Q257 442 286 424T329 379Q371 442 430 442Q467 442 494 420T522 361Q522 332 508 314T481 292T458 288Q439 288 427 299T415 328Q415 374 465 391Q454 404 425 404Q412 404 406 402Q368 386 350 336Q290 115 290 78Q290 50 306 38T341 26Q378 26 414 59T463 140Q466 150 469 151T485 153H489Q504 153 504 145Q504 144 502 134Q486 77 440 33T333 -11Q263 -11 227 52Q186 -10 133 -10H127Q78 -10 57 16T35 71Q35 103 54 123T99 143Q142 143 142 101Q142 81 130 66T107 46T94 41L91 40Q91 39 97 36T113 29T132 26Q168 26 194 71Q203 87 217 139T245 247T261 313Q266 340 266 352Q266 380 251 392T217 404Q177 404 142 372T93 290Q91 281 88 280T72 278H58Q52 284 52 289Z"/>
          </defs>
          <g stroke="currentColor" fill="currentColor" stroke-width="0" transform="scale(1,-1)">
            <g data-mml-node="math">
              <g data-mml-node="mi" data-semantic-type="identifier" data-semantic-role="latinletter" data-semantic-font="italic" data-semantic-annotation="clearspeak:simple" data-semantic-id="0" data-semantic-speech="x">
                <use data-c="1D465" xlink:href="#prefigure-rectangle-MJX-2-TEX-I-1D465"/>
              </g>
            </g>
          </g>
        </svg>
      </g>
    </g>
    <g id="prefigure-rectangle-label-1" transform="translate(142.3,9.0) translate(0.0,-0.0)">
      <g id="prefigure-rectangle-g-3">
        <svg xmlns:xlink="http://www.w3.org/1999/xlink" style="vertical-align: -3.712px" width="8.872px" height="11.712px" role="img" focusable="false" viewBox="0 -442 490 647" x="0.0" y="0.0">
          <defs>
            <path id="prefigure-rectangle-MJX-3-TEX-I-1D466" d="M21 287Q21 301 36 335T84 406T158 442Q199 442 224 419T250 355Q248 336 247 334Q247 331 231 288T198 191T182 105Q182 62 196 45T238 27Q261 27 281 38T312 61T339 94Q339 95 344 114T358 173T377 247Q415 397 419 404Q432 431 462 431Q475 431 483 424T494 412T496 403Q496 390 447 193T391 -23Q363 -106 294 -155T156 -205Q111 -205 77 -183T43 -117Q43 -95 50 -80T69 -58T89 -48T106 -45Q150 -45 150 -87Q150 -107 138 -122T115 -142T102 -147L99 -148Q101 -153 118 -160T152 -167H160Q177 -167 186 -165Q219 -156 247 -127T290 -65T313 -9T321 21L315 17Q309 13 296 6T270 -6Q250 -11 231 -11Q185 -11 150 11T104 82Q103 89 103 113Q103 170 138 262T173 379Q173 380 173 381Q173 390 173 393T169 400T158 404H154Q131 404 112 385T82 344T65 302T57 280Q55 278 41 278H27Q21 284 21 287Z"/>
          </defs>
          <g stroke="currentColor" fill="currentColor" stroke-width="0" transform="scale(1,-1)">
            <g data-mml-node="math">
              <g data-mml-node="mi" data-semantic-type="identifier" data-semantic-role="latinletter" data-semantic-font="italic" data-semantic-annotation="clearspeak:simple" data-semantic-id="0" data-semantic-speech="y">
                <use data-c="1D466" xlink:href="#prefigure-rectangle-MJX-3-TEX-I-1D466"/>
              </g>
            </g>
          </g>
        </svg>
      </g>
    </g>
    <g id="prefigure-rectangle-label-2" transform="translate(71.7,182.7) translate(-7.5,-0.0)">
      <g id="prefigure-rectangle-g-4">
        <svg xmlns:xlink="http://www.w3.org/1999/xlink" style="vertical-align: 0.000px" width="15.080px" height="12.056px" role="img" focusable="false" viewBox="0 -666 833 666" x="0.0" y="0.0">
          <defs>
            <path id="prefigure-rectangle-MJX-4-TEX-N-2D" d="M11 179V252H277V179H11Z"/>
            <path id="prefigure-rectangle-MJX-4-TEX-N-32" d="M109 429Q82 429 66 447T50 491Q50 562 103 614T235 666Q326 666 387 610T449 465Q449 422 429 383T381 315T301 241Q265 210 201 149L142 93L218 92Q375 92 385 97Q392 99 409 186V189H449V186Q448 183 436 95T421 3V0H50V19V31Q50 38 56 46T86 81Q115 113 136 137Q145 147 170 174T204 211T233 244T261 278T284 308T305 340T320 369T333 401T340 431T343 464Q343 527 309 573T212 619Q179 619 154 602T119 569T109 550Q109 549 114 549Q132 549 151 535T170 489Q170 464 154 447T109 429Z"/>
          </defs>
          <g stroke="currentColor" fill="currentColor" stroke-width="0" transform="scale(1,-1)">
            <g data-mml-node="math">
              <g data-mml-node="mtext" data-semantic-type="text" data-semantic-role="unknown" data-semantic-font="normal" data-semantic-annotation="clearspeak:unit" data-semantic-id="0" data-semantic-speech="hyphen 2">
                <use data-c="2D" xlink:href="#prefigure-rectangle-MJX-4-TEX-N-2D"/>
                <use data-c="32" xlink:href="#prefigure-rectangle-MJX-4-TEX-N-32" transform="translate(333,0)"/>
              </g>
            </g>
          </g>
        </svg>
      </g>
    </g>
    <g id="prefigure-rectangle-label-3" transform="translate(205.0,182.7) translate(-4.5,-0.0)">
      <g id="prefigure-rectangle-g-5">
        <svg xmlns:xlink="http://www.w3.org/1999/xlink" style="vertical-align: 0.000px" width="9.048px" height="12.056px" role="img" focusable="false" viewBox="0 -666 500 666" x="0.0" y="0.0">
          <defs>
            <path id="prefigure-rectangle-MJX-5-TEX-N-32" d="M109 429Q82 429 66 447T50 491Q50 562 103 614T235 666Q326 666 387 610T449 465Q449 422 429 383T381 315T301 241Q265 210 201 149L142 93L218 92Q375 92 385 97Q392 99 409 186V189H449V186Q448 183 436 95T421 3V0H50V19V31Q50 38 56 46T86 81Q115 113 136 137Q145 147 170 174T204 211T233 244T261 278T284 308T305 340T320 369T333 401T340 431T343 464Q343 527 309 573T212 619Q179 619 154 602T119 569T109 550Q109 549 114 549Q132 549 151 535T170 489Q170 464 154 447T109 429Z"/>
          </defs>
          <g stroke="currentColor" fill="currentColor" stroke-width="0" transform="scale(1,-1)">
            <g data-mml-node="math">
              <g data-mml-node="mtext" data-semantic-type="text" data-semantic-role="integer" data-semantic-font="normal" data-semantic-annotation="clearspeak:unit" data-semantic-id="0" data-semantic-speech="2">
                <use data-c="32" xlink:href="#prefigure-rectangle-MJX-5-TEX-N-32"/>
              </g>
            </g>
          </g>
        </svg>
      </g>
    </g>
    <g id="prefigure-rectangle-label-4" transform="translate(271.7,182.7) translate(-4.5,-0.0)">
      <g id="prefigure-rectangle-g-6">
        <svg xmlns:xlink="http://www.w3.org/1999/xlink" style="vertical-align: 0.000px" width="9.048px" height="12.256px" role="img" focusable="false" viewBox="0 -677 500 677" x="0.0" y="0.0">
          <defs>
            <path id="prefigure-rectangle-MJX-6-TEX-N-34" d="M462 0Q444 3 333 3Q217 3 199 0H190V46H221Q241 46 248 46T265 48T279 53T286 61Q287 63 287 115V165H28V211L179 442Q332 674 334 675Q336 677 355 677H373L379 671V211H471V165H379V114Q379 73 379 66T385 54Q393 47 442 46H471V0H462ZM293 211V545L74 212L183 211H293Z"/>
          </defs>
          <g stroke="currentColor" fill="currentColor" stroke-width="0" transform="scale(1,-1)">
            <g data-mml-node="math">
              <g data-mml-node="mtext" data-semantic-type="text" data-semantic-role="integer" data-semantic-font="normal" data-semantic-annotation="clearspeak:unit" data-semantic-id="0" data-semantic-speech="4">
                <use data-c="34" xlink:href="#prefigure-rectangle-MJX-6-TEX-N-34"/>
              </g>
            </g>
          </g>
        </svg>
      </g>
    </g>
    <g id="prefigure-rectangle-label-5" transform="translate(127.3,238.3) translate(-15.1,-6.0)">
      <g id="prefigure-rectangle-g-7">
        <svg xmlns:xlink="http://www.w3.org/1999/xlink" style="vertical-align: 0.000px" width="15.080px" height="12.056px" role="img" focusable="false" viewBox="0 -666 833 666" x="0.0" y="0.0">
          <defs>
            <path id="prefigure-rectangle-MJX-7-TEX-N-2D" d="M11 179V252H277V179H11Z"/>
            <path id="prefigure-rectangle-MJX-7-TEX-N-32" d="M109 429Q82 429 66 447T50 491Q50 562 103 614T235 666Q326 666 387 610T449 465Q449 422 429 383T381 315T301 241Q265 210 201 149L142 93L218 92Q375 92 385 97Q392 99 409 186V189H449V186Q448 183 436 95T421 3V0H50V19V31Q50 38 56 46T86 81Q115 113 136 137Q145 147 170 174T204 211T233 244T261 278T284 308T305 340T320 369T333 401T340 431T343 464Q343 527 309 573T212 619Q179 619 154 602T119 569T109 550Q109 549 114 549Q132 549 151 535T170 489Q170 464 154 447T109 429Z"/>
          </defs>
          <g stroke="currentColor" fill="currentColor" stroke-width="0" transform="scale(1,-1)">
            <g data-mml-node="math">
              <g data-mml-node="mtext" data-semantic-type="text" data-semantic-role="unknown" data-semantic-font="normal" data-semantic-annotation="clearspeak:unit" data-semantic-id="0" data-semantic-speech="hyphen 2">
                <use data-c="2D" xlink:href="#prefigure-rectangle-MJX-7-TEX-N-2D"/>
                <use data-c="32" xlink:href="#prefigure-rectangle-MJX-7-TEX-N-32" transform="translate(333,0)"/>
              </g>
            </g>
          </g>
        </svg>
      </g>
    </g>
    <g id="prefigure-rectangle-label-6" transform="translate(127.3,105.0) translate(-9.0,-6.0)">
      <g id="prefigure-rectangle-g-8">
        <svg xmlns:xlink="http://www.w3.org/1999/xlink" style="vertical-align: 0.000px" width="9.048px" height="12.056px" role="img" focusable="false" viewBox="0 -666 500 666" x="0.0" y="0.0">
          <defs>
            <path id="prefigure-rectangle-MJX-8-TEX-N-32" d="M109 429Q82 429 66 447T50 491Q50 562 103 614T235 666Q326 666 387 610T449 465Q449 422 429 383T381 315T301 241Q265 210 201 149L142 93L218 92Q375 92 385 97Q392 99 409 186V189H449V186Q448 183 436 95T421 3V0H50V19V31Q50 38 56 46T86 81Q115 113 136 137Q145 147 170 174T204 211T233 244T261 278T284 308T305 340T320 369T333 401T340 431T343 464Q343 527 309 573T212 619Q179 619 154 602T119 569T109 550Q109 549 114 549Q132 549 151 535T170 489Q170 464 154 447T109 429Z"/>
          </defs>
          <g stroke="currentColor" fill="currentColor" stroke-width="0" transform="scale(1,-1)">
            <g data-mml-node="math">
              <g data-mml-node="mtext" data-semantic-type="text" data-semantic-role="integer" data-semantic-font="normal" data-semantic-annotation="clearspeak:unit" data-semantic-id="0" data-semantic-speech="2">
                <use data-c="32" xlink:href="#prefigure-rectangle-MJX-8-TEX-N-32"/>
              </g>
            </g>
          </g>
        </svg>
      </g>
    </g>
    <g id="prefigure-rectangle-label-7" transform="translate(127.3,38.3) translate(-9.0,-6.1)">
      <g id="prefigure-rectangle-g-9">
        <svg xmlns:xlink="http://www.w3.org/1999/xlink" style="vertical-align: 0.000px" width="9.048px" height="12.256px" role="img" focusable="false" viewBox="0 -677 500 677" x="0.0" y="0.0">
          <defs>
            <path id="prefigure-rectangle-MJX-9-TEX-N-34" d="M462 0Q444 3 333 3Q217 3 199 0H190V46H221Q241 46 248 46T265 48T279 53T286 61Q287 63 287 115V165H28V211L179 442Q332 674 334 675Q336 677 355 677H373L379 671V211H471V165H379V114Q379 73 379 66T385 54Q393 47 442 46H471V0H462ZM293 211V545L74 212L183 211H293Z"/>
          </defs>
          <g stroke="currentColor" fill="currentColor" stroke-width="0" transform="scale(1,-1)">
            <g data-mml-node="math">
              <g data-mml-node="mtext" data-semantic-type="text" data-semantic-role="integer" data-semantic-font="normal" data-semantic-annotation="clearspeak:unit" data-semantic-id="0" data-semantic-speech="4">
                <use data-c="34" xlink:href="#prefigure-rectangle-MJX-9-TEX-N-34"/>
              </g>
            </g>
          </g>
        </svg>
      </g>
    </g>
  </g>
  <path id="prefigure-rectangle-graph-0" stroke="blue" stroke-width="2" fill="none" d="M 5.0 -61.7 L 8.0 -58.7 L 11.0 -55.7 L 14.0 -52.7 L 17.0 -49.7 L 20.0 -46.7 L 23.0 -43.7 L 26.0 -40.7 L 29.0 -37.7 L 32.0 -34.7 L 35.0 -31.7 L 38.0 -28.7 L 41.0 -25.7 L 44.0 -22.7 L 47.0 -19.7 L 50.0 -16.7 L 53.0 -13.7 L 56.0 -10.7 L 59.0 -7.7 L 62.0 -4.7 L 65.0 -1.7 L 68.0 1.3 L 71.0 4.3 L 74.0 7.3 L 77.0 10.3 L 80.0 13.3 L 83.0 16.3 L 86.0 19.3 L 89.0 22.3 L 92.0 25.3 L 95.0 28.3 L 98.0 31.3 L 101.0 34.3 L 104.0 37.3 L 107.0 40.3 L 110.0 43.3 L 113.0 46.3 L 116.0 49.3 L 119.0 52.3 L 122.0 55.3 L 125.0 58.3 L 128.0 61.3 L 131.0 64.3 L 134.0 67.3 L 137.0 70.3 L 140.0 73.3 L 143.0 76.3 L 146.0 79.3 L 149.0 82.3 L 152.0 85.3 L 155.0 88.3 L 158.0 91.3 L 161.0 94.3 L 164.0 97.3 L 167.0 100.3 L 170.0 103.3 L 173.0 106.3 L 176.0 109.3 L 179.0 112.3 L 182.0 115.3 L 185.0 118.3 L 188.0 121.3 L 191.0 124.3 L 194.0 127.3 L 197.0 130.3 L 200.0 133.3 L 203.0 136.3 L 206.0 139.3 L 209.0 142.3 L 212.0 145.3 L 215.0 148.3 L 218.0 151.3 L 221.0 154.3 L 224.0 157.3 L 227.0 160.3 L 230.0 163.3 L 233.0 166.3 L 236.0 169.3 L 239.0 172.3 L 242.0 175.3 L 245.0 178.3 L 248.0 181.3 L 251.0 184.3 L 254.0 187.3 L 257.0 190.3 L 260.0 193.3 L 263.0 196.3 L 266.0 199.3 L 269.0 202.3 L 272.0 205.3 L 275.0 208.3 L 278.0 211.3 L 281.0 214.3 L 284.0 217.3 L 287.0 220.3 L 290.0 223.3 L 293.0 226.3 L 296.0 229.3 L 299.0 232.3 L 302.0 235.3 L 305.0 238.3" clip-path="url(#prefigure-rectangle-clipPath-1)"/>
</svg>
