<svg xmlns="http://www.w3.org/2000/svg" id="prefigure-exponential-1-figure" width="310" height="310" viewBox="0 0 310 310">
  <defs>
    <clipPath id="prefigure-exponential-1-clipPath-0">
      <rect x="5.0" y="5.0" width="300.0" height="300.0"/>
    </clipPath>
    <clipPath id="prefigure-exponential-1-clipPath-1">
      <rect x="5.0" y="5.0" width="300.0" height="300.0"/>
    </clipPath>
  </defs>
  <g id="prefigure-exponential-1-grid-axes">
    <g id="prefigure-exponential-1-grid" stroke="#ccc" stroke-width="1">
      <line x1="5.0" y1="305.0" x2="5.0" y2="5.0"/>
      <line x1="47.9" y1="305.0" x2="47.9" y2="5.0"/>
      <line x1="90.7" y1="305.0" x2="90.7" y2="5.0"/>
      <line x1="133.6" y1="305.0" x2="133.6" y2="5.0"/>
      <line x1="176.4" y1="305.0" x2="176.4" y2="5.0"/>
      <line x1="219.3" y1="305.0" x2="219.3" y2="5.0"/>
      <line x1="262.1" y1="305.0" x2="262.1" y2="5.0"/>
      <line x1="305.0" y1="305.0" x2="305.0" y2="5.0"/>
      <line x1="5.0" y1="281.3" x2="305.0" y2="281.3"/>
      <line x1="5.0" y1="241.8" x2="305.0" y2="241.8"/>
      <line x1="5.0" y1="202.4" x2="305.0" y2="202.4"/>
      <line x1="5.0" y1="162.9" x2="305.0" y2="162.9"/>
      <line x1="5.0" y1="123.4" x2="305.0" y2="123.4"/>
      <line x1="5.0" y1="83.9" x2="305.0" y2="83.9"/>
      <line x1="5.0" y1="44.5" x2="305.0" y2="44.5"/>
      <line x1="5.0" y1="5.0" x2="305.0" y2="5.0"/>
    </g>
    <g id="prefigure-exponential-1-axes" stroke="black" stroke-width="2">
      <line id="prefigure-exponential-1-line-16" x1="5.0" y1="241.8" x2="305.0" y2="241.8" stroke="black" stroke-width="2"/>
      <g id="prefigure-exponential-1-g-0">
        <line id="prefigure-exponential-1-line-17" x1="5.0" y1="244.8" x2="5.0" y2="238.8"/>
        <line id="prefigure-exponential-1-line-18" x1="47.9" y1="244.8" x2="47.9" y2="238.8"/>
        <line id="prefigure-exponential-1-line-19" x1="90.7" y1="244.8" x2="90.7" y2="238.8"/>
        <line id="prefigure-exponential-1-line-20" x1="133.6" y1="244.8" x2="133.6" y2="238.8"/>
        <line id="prefigure-exponential-1-line-21" x1="219.3" y1="244.8" x2="219.3" y2="238.8"/>
        <line id="prefigure-exponential-1-line-22" x1="262.1" y1="244.8" x2="262.1" y2="238.8"/>
        <line id="prefigure-exponential-1-line-23" x1="305.0" y1="244.8" x2="305.0" y2="238.8"/>
        <line id="prefigure-exponential-1-line-24" x1="90.7" y1="244.8" x2="90.7" y2="238.8"/>
        <line id="prefigure-exponential-1-line-25" x1="262.1" y1="244.8" x2="262.1" y2="238.8"/>
      </g>
      <line id="prefigure-exponential-1-line-26" x1="176.4" y1="305.0" x2="176.4" y2="5.0" stroke="black" stroke-width="2"/>
      <g id="prefigure-exponential-1-g-1">
        <line id="prefigure-exponential-1-line-27" x1="173.4" y1="281.3" x2="179.4" y2="281.3"/>
        <line id="prefigure-exponential-1-line-28" x1="173.4" y1="202.4" x2="179.4" y2="202.4"/>
        <line id="prefigure-exponential-1-line-29" x1="173.4" y1="162.9" x2="179.4" y2="162.9"/>
        <line id="prefigure-exponential-1-line-30" x1="173.4" y1="123.4" x2="179.4" y2="123.4"/>
        <line id="prefigure-exponential-1-line-31" x1="173.4" y1="83.9" x2="179.4" y2="83.9"/>
        <line id="prefigure-exponential-1-line-32" x1="173.4" y1="44.5" x2="179.4" y2="44.5"/>
        <line id="prefigure-exponential-1-line-33" x1="173.4" y1="5.0" x2="179.4" y2="5.0"/>
        <line id="prefigure-exponential-1-line-34" x1="173.4" y1="162.9" x2="179.4" y2="162.9"/>
        <line id="prefigure-exponential-1-line-35" x1="173.4" y1="83.9" x2="179.4" y2="83.9"/>
      </g>
    </g>
    <g id="prefigure-exponential-1-label-0" transform="translate(301.0,237.8) translate(-10.4,-8.2)">
      <g id="prefigure-exponential-1-g-2">
        <svg xmlns:xlink="http://www.w3.org/1999/xlink" style="vertical-align: -0.200px" width="10.352px" height="8.200px" role="img" focusable="false" viewBox="0 -442 572 453" x="0.0" y="0.0">
          <defs>
            <path id="prefigure-exponential-1-MJX-2-TEX-I-1D465" d="M52 289Q59 331 106 386T222 442Q257 442 286 424T329 379Q371 442 430 442Q467 442 494 420T522 361Q522 332 508 314T481 292T458 288Q439 288 427 299T415 328Q415 374 465 391Q454 404 425 404Q412 404 406 402Q368 386 350 336Q290 115 290 78Q290 50 306 38T341 26Q378 26 414 59T463 140Q466 150 469 151T485 153H489Q504 153 504 145Q504 144 502 134Q486 77 440 33T333 -11Q263 -11 227 52Q186 -10 133 -10H127Q78 -10 57 16T35 71Q35 103 54 123T99 143Q142 143 142 101Q142 81 130 66T107 46T94 41L91 40Q91 39 97 36T113 29T132 26Q168 26 194 71Q203 87 217 139T245 247T261 313Q266 340 266 352Q266 380 251 392T217 404Q177 404 142 372T93 290Q91 281 88 280T72 278H58Q52 284 52 289Z"/>
          </defs>
          <g stroke="currentColor" fill="currentColor" stroke-width="0" transform="scale(1,-1)">
            <g data-mml-node="math">
              <g data-mml-node="mi" data-semantic-type="identifier" data-semantic-role="latinletter" data-semantic-font="italic" data-semantic-annotation="clearspeak:simple" data-semantic-id="0" data-semantic-speech="x">
                <use data-c="1D465" xlink:href="#prefigure-exponential-1-MJX-2-TEX-I-1D465"/>
              </g>
            </g>
          </g>
        </svg>
      </g>
    </g>
    <g id="prefigure-exponential-1-label-1" transform="translate(180.4,9.0) translate(0.0,-0.0)">
      <g id="prefigure-exponential-1-g-3">
        <svg xmlns:xlink="http://www.w3.org/1999/xlink" style="vertical-align: -3.712px" width="8.872px" height="11.712px" role="img" focusable="false" viewBox="0 -442 490 647" x="0.0" y="0.0">
          <defs>
            <path id="prefigure-exponential-1-MJX-3-TEX-I-1D466" d="M21 287Q21 301 36 335T84 406T158 442Q199 442 224 419T250 355Q248 336 247 334Q247 331 231 288T198 191T182 105Q182 62 196 45T238 27Q261 27 281 38T312 61T339 94Q339 95 344 114T358 173T377 247Q415 397 419 404Q432 431 462 431Q475 431 483 424T494 412T496 403Q496 390 447 193T391 -23Q363 -106 294 -155T156 -205Q111 -205 77 -183T43 -117Q43 -95 50 -80T69 -58T89 -48T106 -45Q150 -45 150 -87Q150 -107 138 -122T115 -142T102 -147L99 -148Q101 -153 118 -160T152 -167H160Q177 -167 186 -165Q219 -156 247 -127T290 -65T313 -9T321 21L315 17Q309 13 296 6T270 -6Q250 -11 231 -11Q185 -11 150 11T104 82Q103 89 103 113Q103 170 138 262T173 379Q173 380 173 381Q173 390 173 393T169 400T158 404H154Q131 404 112 385T82 344T65 302T57 280Q55 278 41 278H27Q21 284 21 287Z"/>
          </defs>
          <g stroke="currentColor" fill="currentColor" stroke-width="0" transform="scale(1,-1)">
            <g data-mml-node="math">
              <g data-mml-node="mi" data-semantic-type="identifier" data-semantic-role="latinletter" data-semantic-font="italic" data-semantic-annotation="clearspeak:simple" data-semantic-id="0" data-semantic-speech="y">
                <use data-c="1D466" xlink:href="#prefigure-exponential-1-MJX-3-TEX-I-1D466"/>
              </g>
            </g>
          </g>
        </svg>
      </g>
    </g>
    <g id="prefigure-exponential-1-label-2" transform="translate(90.7,252.8) translate(-7.5,-0.0)">
      <g id="prefigure-exponential-1-g-4">
        <svg xmlns:xlink="http://www.w3.org/1999/xlink" style="vertical-align: 0.000px" width="15.080px" height="12.056px" role="img" focusable="false" viewBox="0 -666 833 666" x="0.0" y="0.0">
          <defs>
            <path id="prefigure-exponential-1-MJX-4-TEX-N-2D" d="M11 179V252H277V179H11Z"/>
            <path id="prefigure-exponential-1-MJX-4-TEX-N-32" d="M109 429Q82 429 66 447T50 491Q50 562 103 614T235 666Q326 666 387 610T449 465Q449 422 429 383T381 315T301 241Q265 210 201 149L142 93L218 92Q375 92 385 97Q392 99 409 186V189H449V186Q448 183 436 95T421 3V0H50V19V31Q50 38 56 46T86 81Q115 113 136 137Q145 147 170 174T204 211T233 244T261 278T284 308T305 340T320 369T333 401T340 431T343 464Q343 527 309 573T212 619Q179 619 154 602T119 569T109 550Q109 549 114 549Q132 549 151 535T170 489Q170 464 154 447T109 429Z"/>
          </defs>
          <g stroke="currentColor" fill="currentColor" stroke-width="0" transform="scale(1,-1)">
            <g data-mml-node="math">
              <g data-mml-node="mtext" data-semantic-type="text" data-semantic-role="unknown" data-semantic-font="normal" data-semantic-annotation="clearspeak:unit" data-semantic-id="0" data-semantic-speech="hyphen 2">
                <use data-c="2D" xlink:href="#prefigure-exponential-1-MJX-4-TEX-N-2D"/>
                <use data-c="32" xlink:href="#prefigure-exponential-1-MJX-4-TEX-N-32" transform="translate(333,0)"/>
              </g>
            </g>
          </g>
        </svg>
      </g>
    </g>
    <g id="prefigure-exponential-1-label-3" transform="translate(262.1,252.8) translate(-4.5,-0.0)">
      <g id="prefigure-exponential-1-g-5">
        <svg xmlns:xlink="http://www.w3.org/1999/xlink" style="vertical-align: 0.000px" width="9.048px" height="12.056px" role="img" focusable="false" viewBox="0 -666 500 666" x="0.0" y="0.0">
          <defs>
            <path id="prefigure-exponential-1-MJX-5-TEX-N-32" d="M109 429Q82 429 66 447T50 491Q50 562 103 614T235 666Q326 666 387 610T449 465Q449 422 429 383T381 315T301 241Q265 210 201 149L142 93L218 92Q375 92 385 97Q392 99 409 186V189H449V186Q448 183 436 95T421 3V0H50V19V31Q50 38 56 46T86 81Q115 113 136 137Q145 147 170 174T204 211T233 244T261 278T284 308T305 340T320 369T333 401T340 431T343 464Q343 527 309 573T212 619Q179 619 154 602T119 569T109 550Q109 549 114 549Q132 549 151 535T170 489Q170 464 154 447T109 429Z"/>
          </defs>
          <g stroke="currentColor" fill="currentColor" stroke-width="0" transform="scale(1,-1)">
            <g data-mml-node="math">
              <g data-mml-node="mtext" data-semantic-type="text" data-semantic-role="integer" data-semantic-font="normal" data-semantic-annotation="clearspeak:unit" data-semantic-id="0" data-semantic-speech="2">
                <use data-c="32" xlink:href="#prefigure-exponential-1-MJX-5-TEX-N-32"/>
              </g>
            </g>
          </g>
        </svg>
      </g>
    </g>
    <g id="prefigure-exponential-1-label-4" transform="translate(165.4,162.9) translate(-9.0,-6.2)">
      <g id="prefigure-exponential-1-g-6">
        <svg xmlns:xlink="http://www.w3.org/1999/xlink" style="vertical-align: -0.400px" width="9.048px" height="12.456px" role="img" focusable="false" viewBox="0 -666 500 688" x="0.0" y="0.0">
          <defs>
            <path id="prefigure-exponential-1-MJX-6-TEX-N-35" d="M164 157Q164 133 148 117T109 101H102Q148 22 224 22Q294 22 326 82Q345 115 345 210Q345 313 318 349Q292 382 260 382H254Q176 382 136 314Q132 307 129 306T114 304Q97 304 95 310Q93 314 93 485V614Q93 664 98 664Q100 666 102 666Q103 666 123 658T178 642T253 634Q324 634 389 662Q397 666 402 666Q410 666 410 648V635Q328 538 205 538Q174 538 149 544L139 546V374Q158 388 169 396T205 412T256 420Q337 420 393 355T449 201Q449 109 385 44T229 -22Q148 -22 99 32T50 154Q50 178 61 192T84 210T107 214Q132 214 148 197T164 157Z"/>
          </defs>
          <g stroke="currentColor" fill="currentColor" stroke-width="0" transform="scale(1,-1)">
            <g data-mml-node="math">
              <g data-mml-node="mtext" data-semantic-type="text" data-semantic-role="integer" data-semantic-font="normal" data-semantic-annotation="clearspeak:unit" data-semantic-id="0" data-semantic-speech="5">
                <use data-c="35" xlink:href="#prefigure-exponential-1-MJX-6-TEX-N-35"/>
              </g>
            </g>
          </g>
        </svg>
      </g>
    </g>
    <g id="prefigure-exponential-1-label-5" transform="translate(165.4,83.9) translate(-18.1,-6.2)">
      <g id="prefigure-exponential-1-g-7">
        <svg xmlns:xlink="http://www.w3.org/1999/xlink" style="vertical-align: -0.400px" width="18.096px" height="12.456px" role="img" focusable="false" viewBox="0 -666 1000 688" x="0.0" y="0.0">
          <defs>
            <path id="prefigure-exponential-1-MJX-7-TEX-N-31" d="M213 578L200 573Q186 568 160 563T102 556H83V602H102Q149 604 189 617T245 641T273 663Q275 666 285 666Q294 666 302 660V361L303 61Q310 54 315 52T339 48T401 46H427V0H416Q395 3 257 3Q121 3 100 0H88V46H114Q136 46 152 46T177 47T193 50T201 52T207 57T213 61V578Z"/>
            <path id="prefigure-exponential-1-MJX-7-TEX-N-30" d="M96 585Q152 666 249 666Q297 666 345 640T423 548Q460 465 460 320Q460 165 417 83Q397 41 362 16T301 -15T250 -22Q224 -22 198 -16T137 16T82 83Q39 165 39 320Q39 494 96 585ZM321 597Q291 629 250 629Q208 629 178 597Q153 571 145 525T137 333Q137 175 145 125T181 46Q209 16 250 16Q290 16 318 46Q347 76 354 130T362 333Q362 478 354 524T321 597Z"/>
          </defs>
          <g stroke="currentColor" fill="currentColor" stroke-width="0" transform="scale(1,-1)">
            <g data-mml-node="math">
              <g data-mml-node="mtext" data-semantic-type="text" data-semantic-role="unknown" data-semantic-font="normal" data-semantic-annotation="clearspeak:unit" data-semantic-id="0" data-semantic-speech="10">
                <use data-c="31" xlink:href="#prefigure-exponential-1-MJX-7-TEX-N-31"/>
                <use data-c="30" xlink:href="#prefigure-exponential-1-MJX-7-TEX-N-30" transform="translate(500,0)"/>
              </g>
            </g>
          </g>
        </svg>
      </g>
    </g>
  </g>
  <path id="prefigure-exponential-1-graph-0" stroke="blue" stroke-width="2" fill="none" d="M 5.0 238.9 L 8.0 238.7 L 11.0 238.6 L 14.0 238.4 L 17.0 238.2 L 20.0 238.1 L 23.0 237.9 L 26.0 237.7 L 29.0 237.5 L 32.0 237.3 L 35.0 237.0 L 38.0 236.8 L 41.0 236.5 L 44.0 236.3 L 47.0 236.0 L 50.0 235.7 L 53.0 235.4 L 56.0 235.1 L 59.0 234.8 L 62.0 234.4 L 65.0 234.0 L 68.0 233.6 L 71.0 233.2 L 74.0 232.8 L 77.0 232.4 L 80.0 231.9 L 83.0 231.4 L 86.0 230.9 L 89.0 230.3 L 92.0 229.8 L 95.0 229.2 L 98.0 228.5 L 101.0 227.9 L 104.0 227.2 L 107.0 226.4 L 110.0 225.7 L 113.0 224.9 L 116.0 224.0 L 119.0 223.1 L 122.0 222.2 L 125.0 221.2 L 128.0 220.2 L 131.0 219.1 L 134.0 218.0 L 137.0 216.8 L 140.0 215.6 L 143.0 214.3 L 146.0 212.9 L 149.0 211.4 L 152.0 209.9 L 155.0 208.3 L 158.0 206.7 L 161.0 204.9 L 164.0 203.1 L 167.0 201.2 L 170.0 199.2 L 173.0 197.0 L 176.0 194.8 L 179.0 192.5 L 182.0 190.0 L 185.0 187.4 L 188.0 184.7 L 191.0 181.9 L 194.0 178.9 L 197.0 175.8 L 200.0 172.5 L 203.0 169.0 L 206.0 165.4 L 209.0 161.6 L 212.0 157.6 L 215.0 153.4 L 218.0 149.1 L 221.0 144.4 L 224.0 139.6 L 227.0 134.5 L 230.0 129.2 L 233.0 123.6 L 236.0 117.7 L 239.0 111.5 L 242.0 105.0 L 245.0 98.2 L 248.0 91.1 L 251.0 83.6 L 254.0 75.7 L 257.0 67.5 L 260.0 58.8 L 263.0 49.7 L 266.0 40.2 L 269.0 30.1 L 272.0 19.6 L 275.0 8.6 L 278.0 -3.0 L 281.0 -15.2 L 284.0 -28.0 L 287.0 -41.4 L 290.0 -55.5 L 293.0 -70.3 L 296.0 -85.8 L 299.0 -102.1 L 302.0 -119.2 L 305.0 -137.1" clip-path="url(#prefigure-exponential-1-clipPath-1)"/>
</svg>
